<svg xmlns="http://www.w3.org/2000/svg" width="172" height="113" fill="none" viewBox="0 0 172 113">
  <g class="logo-1-small">
    <path fill="#fff" d="M96.88 53.965c5.4 0 8.1-3.53 8.1-11.06v-19.83c0-7.37-2.7-10.81-8.1-10.63-5.4.18-8.1 3.76-8.1 11v19.59c0 7.46 2.7 10.93 8.1 10.93Zm57.41 58.309a1842 1842 0 0 0 17.24.26v-18.26c-2.21 10.29-7.86 16.49-17.24 18Z" class="Vector"/>
    <path fill="#fff" d="M73.43 82.545v-2l14.78.32v3.16c0 7.89 3.13 11 8.1 11.14 5.55.17 8.68-2.79 8.67-13.51v-21.47h-.28c-2.7 6.39-7.25 9.69-14.22 9.61-11.51-.15-17.33-9.12-17.33-25.14v-19.49c0-9.88 2.69-17.46 7.8-22.38-27 1.26-53.983 2.953-80.95 5.08v97a2587.315 2587.315 0 0 0 91.44 5.54c-11.88-2.71-18.01-12.56-18.01-27.86Zm98.1-69.56V.165l-6.71.08c3.24 3.1 5.49 7.36 6.71 12.74Z" class="Vector"/>
    <path fill="#fff" d="M132.94.885c-6.707.18-13.413.383-20.12.61 5.11 4.61 7.8 12.3 7.8 22.54v58.48c0 16.75-5.92 26.62-18.33 28.3 13.707.526 27.42.943 41.14 1.25-11.88-2.5-18-12.61-18-28.51v-2.1l14.79.17v3.27c0 8.15 3.13 11.3 8.11 11.38 5.54.08 8.67-3 8.67-14v-22h-.28c-2.7 6.56-7.26 10-14.22 9.94-11.52-.09-17.35-9.36-17.35-26v-20.26c-.02-10.26 2.67-18.09 7.79-23.07Z" class="Vector"/>
    <path fill="#fff" d="M140.77 22.414v20.23c0 7.66 2.7 11.25 8.11 11.25 5.41 0 8.1-3.62 8.1-11.33v-20.35c0-7.55-2.7-11.13-8.1-11-5.4.13-8.11 3.69-8.11 11.2Z" class="Vector"/>
  </g>
</svg>
