<svg xmlns="http://www.w3.org/2000/svg" width="400" height="114" fill="none" viewBox="0 0 400 114">
  <g class="logo-1">
    <path fill="#fff" d="M96.88 54.62c5.4 0 8.1-3.53 8.1-11.06V23.73c0-7.37-2.7-10.81-8.1-10.63-5.4.18-8.1 3.76-8.1 11v19.59c0 7.46 2.7 10.93 8.1 10.93Zm57.41 58.31c5.753.113 11.5.2 17.24.26V94.93c-2.21 10.29-7.86 16.49-17.24 18Z" class="Vector"/>
    <path fill="#fff" d="M73.43 83.2v-2l14.78.32v3.16c0 7.89 3.13 11 8.1 11.14 5.55.17 8.68-2.79 8.67-13.51V60.84h-.28c-2.7 6.39-7.25 9.69-14.22 9.61-11.51-.15-17.33-9.12-17.33-25.14V25.82c0-9.88 2.69-17.46 7.8-22.38C53.95 4.7 26.967 6.394 0 8.52v97a2584.929 2584.929 0 0 0 91.44 5.54C79.56 108.35 73.43 98.5 73.43 83.2Zm98.1-69.56V.82l-6.71.08c3.24 3.1 5.49 7.36 6.71 12.74Z" class="Vector"/>
    <path fill="#fff" d="M132.94 1.54c-6.707.18-13.413.383-20.12.61 5.11 4.61 7.8 12.3 7.8 22.54v58.48c0 16.75-5.92 26.62-18.33 28.3 13.707.527 27.42.943 41.14 1.25-11.88-2.5-18-12.61-18-28.51v-2.1l14.79.17v3.27c0 8.15 3.13 11.3 8.11 11.38 5.54.08 8.67-3 8.67-14v-22h-.28c-2.7 6.56-7.26 10-14.22 9.94-11.52-.09-17.35-9.36-17.35-26V24.61c-.02-10.26 2.67-18.09 7.79-23.07Z" class="Vector"/>
    <path fill="#fff" d="M140.77 23.07V43.3c0 7.66 2.7 11.25 8.11 11.25 5.41 0 8.1-3.62 8.1-11.33V22.87c0-7.55-2.7-11.13-8.1-11-5.4.13-8.11 3.69-8.11 11.2Zm39.06 90.19c5.08.04 10.163.067 15.25.08V64.25h19.68V48.16h-19.68v-31.4c8.36 0 16.723.02 25.09.06V.74a2393.16 2393.16 0 0 0-40.34 0v112.52ZM320.2 80.09h-.28c-3.233-25.473-6.463-51.14-9.69-77-7.247-.32-14.497-.603-21.75-.85v109.57c4.427-.16 8.86-.326 13.3-.5V29.07h.27c3.7 27.48 7.397 54.73 11.09 81.75l12.74-.6c3.687-27.046 7.38-53.816 11.08-80.31h.28v79.72c4.8-.26 9.6-.533 14.4-.82V5.17a3043.53 3043.53 0 0 0-21.74-1.2c-3.227 25.14-6.46 50.514-9.7 76.12Zm63.53-28.89C374 42.4 371 37 371 29.87c0-6.75 2.69-9.29 7.4-9.05 4.71.24 7.39 3 7.39 9.89v4.95l14 .46v-3.91c0-15-7.12-24.23-21.52-25.31-14.4-1.08-22.07 7.67-22.07 23.47 0 11.43 4 19.8 16.42 31.12 9.69 8.76 12.65 13.69 12.65 21.69 0 7.16-3 9.8-7.67 10-4.67.2-7.67-2.15-7.67-9.19v-6.76c-4.667.127-9.333.247-14 .36v5.73c0 16.09 7.27 24.85 21.8 23.78C392.26 106.03 400 96.79 400 81.51c0-11.73-3.9-19.05-16.27-30.31Zm-159.32 62.03c5.093-.054 10.177-.117 15.25-.19V1c-5.08-.08-10.163-.144-15.25-.19v112.42ZM259.15 1.35c-5.08-.12-10.163-.223-15.25-.31V113c13.453-.24 26.897-.573 40.33-1V96.3c-8.36.2-16.72.37-25.08.51V1.35Z" class="Vector"/>
  </g>
</svg>
