<svg xmlns="http://www.w3.org/2000/svg" width="100" height="100" fill="none" viewBox="0 0 100 100">
  <g class="star">
    <path fill="#F4C434" d="M47.175 12.18A3.142 3.142 0 0 1 50 10.416c1.204 0 2.3.683 2.825 1.762 4.058 8.325 11.042 22.667 11.042 22.667s15.879 2.183 25.091 3.454c1.68.23 2.709 1.65 2.709 3.113 0 .791-.3 1.595-.963 2.233a35733.232 35733.232 0 0 0-18.258 17.462s2.82 15.696 4.454 24.8c.346 1.925-1.146 3.675-3.092 3.675-.508 0-1.016-.12-1.479-.37C64.13 84.846 50 77.333 50 77.333s-14.128 7.513-22.328 11.88a3.12 3.12 0 0 1-1.484.37c-1.937 0-3.437-1.754-3.087-3.675l4.458-24.8S16.004 50.054 9.3 43.646a3.053 3.053 0 0 1-.967-2.23c0-1.466 1.038-2.891 2.713-3.116 9.212-1.27 25.087-3.454 25.087-3.454s6.988-14.342 11.042-22.667Z" class="Vector"/>
  </g>
</svg>
