<svg xmlns="http://www.w3.org/2000/svg" width="256" height="256" fill="none" viewBox="0 0 256 256">
  <g class="iconmonstr-video-1 1">
    <path fill="#E50914" d="M0 10.667v234.666h256V10.667H0ZM42.667 224H21.333v-21.333h21.334V224Zm0-42.667H21.333V160h21.334v21.333Zm0-42.666H21.333v-21.334h21.334v21.334Zm0-42.667H21.333V74.667h21.334V96Zm0-42.667H21.333V32h21.334v21.333ZM192 224H64v-85.333h128V224Zm0-106.667H64V32h128v85.333ZM234.667 224h-21.334v-21.333h21.334V224Zm0-42.667h-21.334V160h21.334v21.333Zm0-42.666h-21.334v-21.334h21.334v21.334Zm0-42.667h-21.334V74.667h21.334V96Zm0-42.667h-21.334V32h21.334v21.333Z" class="Vector"/>
  </g>
</svg>
